<mxfile host="app.diagrams.net" modified="2024-06-12T06:10:17.467Z" agent="Mozilla/5.0 (Windows NT 10.0; Win64; x64) AppleWebKit/537.36 (KHTML, like Gecko) Chrome/123.0.0.0 Safari/537.36 OPR/109.0.0.0" etag="f2arSgMNmzl3RxuDjIPo" version="24.5.3" type="device">
  <diagram id="C5RBs43oDa-KdzZeNtuy" name="Page-1">
    <mxGraphModel dx="1161" dy="1807" grid="1" gridSize="10" guides="1" tooltips="1" connect="1" arrows="1" fold="1" page="1" pageScale="1" pageWidth="827" pageHeight="1169" math="0" shadow="0">
      <root>
        <mxCell id="WIyWlLk6GJQsqaUBKTNV-0" />
        <mxCell id="WIyWlLk6GJQsqaUBKTNV-1" parent="WIyWlLk6GJQsqaUBKTNV-0" />
        <mxCell id="fNXmYHoRE0zhG1Q6niyi-6" value="" style="edgeStyle=orthogonalEdgeStyle;rounded=0;orthogonalLoop=1;jettySize=auto;html=1;strokeColor=#23445D;labelBackgroundColor=none;fontColor=default;" edge="1" parent="WIyWlLk6GJQsqaUBKTNV-1" source="fNXmYHoRE0zhG1Q6niyi-1" target="fNXmYHoRE0zhG1Q6niyi-5">
          <mxGeometry relative="1" as="geometry" />
        </mxCell>
        <mxCell id="fNXmYHoRE0zhG1Q6niyi-1" value="Користувачі" style="ellipse;whiteSpace=wrap;html=1;strokeColor=#FFFFFF;fontColor=#FFFFFF;fillColor=#182E3E;labelBackgroundColor=none;" vertex="1" parent="WIyWlLk6GJQsqaUBKTNV-1">
          <mxGeometry x="280" y="410" width="120" height="80" as="geometry" />
        </mxCell>
        <mxCell id="fNXmYHoRE0zhG1Q6niyi-4" value="" style="edgeStyle=orthogonalEdgeStyle;rounded=0;orthogonalLoop=1;jettySize=auto;html=1;strokeColor=#23445D;labelBackgroundColor=none;fontColor=default;" edge="1" parent="WIyWlLk6GJQsqaUBKTNV-1" source="fNXmYHoRE0zhG1Q6niyi-2" target="fNXmYHoRE0zhG1Q6niyi-3">
          <mxGeometry relative="1" as="geometry" />
        </mxCell>
        <mxCell id="fNXmYHoRE0zhG1Q6niyi-2" value="База&lt;div&gt;Даних&lt;/div&gt;" style="shape=cylinder3;whiteSpace=wrap;html=1;boundedLbl=1;backgroundOutline=1;size=15;strokeColor=#FFFFFF;fontColor=#FFFFFF;fillColor=#182E3E;labelBackgroundColor=none;" vertex="1" parent="WIyWlLk6GJQsqaUBKTNV-1">
          <mxGeometry x="750" y="-50" width="60" height="80" as="geometry" />
        </mxCell>
        <mxCell id="fNXmYHoRE0zhG1Q6niyi-30" style="edgeStyle=orthogonalEdgeStyle;rounded=0;orthogonalLoop=1;jettySize=auto;html=1;entryX=1;entryY=0.5;entryDx=0;entryDy=0;strokeColor=#23445D;" edge="1" parent="WIyWlLk6GJQsqaUBKTNV-1" source="fNXmYHoRE0zhG1Q6niyi-3" target="fNXmYHoRE0zhG1Q6niyi-29">
          <mxGeometry relative="1" as="geometry" />
        </mxCell>
        <mxCell id="fNXmYHoRE0zhG1Q6niyi-3" value="Ядро системи" style="rounded=0;whiteSpace=wrap;html=1;strokeColor=#FFFFFF;fontColor=#FFFFFF;fillColor=#182E3E;labelBackgroundColor=none;" vertex="1" parent="WIyWlLk6GJQsqaUBKTNV-1">
          <mxGeometry x="540" y="-40" width="120" height="60" as="geometry" />
        </mxCell>
        <mxCell id="fNXmYHoRE0zhG1Q6niyi-8" value="" style="edgeStyle=orthogonalEdgeStyle;rounded=0;orthogonalLoop=1;jettySize=auto;html=1;strokeColor=#23445D;labelBackgroundColor=none;fontColor=default;" edge="1" parent="WIyWlLk6GJQsqaUBKTNV-1" source="fNXmYHoRE0zhG1Q6niyi-5" target="fNXmYHoRE0zhG1Q6niyi-7">
          <mxGeometry relative="1" as="geometry" />
        </mxCell>
        <mxCell id="fNXmYHoRE0zhG1Q6niyi-9" value="Ні/Так" style="edgeLabel;html=1;align=center;verticalAlign=middle;resizable=0;points=[];strokeColor=#FFFFFF;fontColor=#FFFFFF;fillColor=#182E3E;labelBackgroundColor=#000000;" vertex="1" connectable="0" parent="fNXmYHoRE0zhG1Q6niyi-8">
          <mxGeometry x="-0.2155" y="-1" relative="1" as="geometry">
            <mxPoint as="offset" />
          </mxGeometry>
        </mxCell>
        <mxCell id="fNXmYHoRE0zhG1Q6niyi-17" style="edgeStyle=orthogonalEdgeStyle;rounded=0;orthogonalLoop=1;jettySize=auto;html=1;entryX=0.5;entryY=1;entryDx=0;entryDy=0;strokeColor=#23445D;" edge="1" parent="WIyWlLk6GJQsqaUBKTNV-1" source="fNXmYHoRE0zhG1Q6niyi-5" target="fNXmYHoRE0zhG1Q6niyi-16">
          <mxGeometry relative="1" as="geometry" />
        </mxCell>
        <mxCell id="fNXmYHoRE0zhG1Q6niyi-18" value="Так" style="edgeLabel;html=1;align=center;verticalAlign=middle;resizable=0;points=[];strokeColor=#FFFFFF;fontColor=#FFFFFF;fillColor=#182E3E;labelBackgroundColor=#000000;" vertex="1" connectable="0" parent="fNXmYHoRE0zhG1Q6niyi-17">
          <mxGeometry x="-0.3188" y="-1" relative="1" as="geometry">
            <mxPoint y="1" as="offset" />
          </mxGeometry>
        </mxCell>
        <mxCell id="fNXmYHoRE0zhG1Q6niyi-5" value="Чи&lt;br&gt;&amp;nbsp;зареєстрований користувач?" style="rhombus;whiteSpace=wrap;html=1;strokeColor=#FFFFFF;fontColor=#FFFFFF;fillColor=#182E3E;labelBackgroundColor=none;" vertex="1" parent="WIyWlLk6GJQsqaUBKTNV-1">
          <mxGeometry x="282.5" y="270" width="115" height="110" as="geometry" />
        </mxCell>
        <mxCell id="fNXmYHoRE0zhG1Q6niyi-13" style="edgeStyle=orthogonalEdgeStyle;rounded=0;orthogonalLoop=1;jettySize=auto;html=1;entryX=0.5;entryY=1;entryDx=0;entryDy=0;strokeColor=#23445D;" edge="1" parent="WIyWlLk6GJQsqaUBKTNV-1" source="fNXmYHoRE0zhG1Q6niyi-7" target="fNXmYHoRE0zhG1Q6niyi-10">
          <mxGeometry relative="1" as="geometry">
            <Array as="points">
              <mxPoint x="520" y="180" />
              <mxPoint x="370" y="180" />
            </Array>
          </mxGeometry>
        </mxCell>
        <mxCell id="fNXmYHoRE0zhG1Q6niyi-14" style="edgeStyle=orthogonalEdgeStyle;rounded=0;orthogonalLoop=1;jettySize=auto;html=1;entryX=0.5;entryY=1;entryDx=0;entryDy=0;strokeColor=#23445D;" edge="1" parent="WIyWlLk6GJQsqaUBKTNV-1" source="fNXmYHoRE0zhG1Q6niyi-7" target="fNXmYHoRE0zhG1Q6niyi-11">
          <mxGeometry relative="1" as="geometry" />
        </mxCell>
        <mxCell id="fNXmYHoRE0zhG1Q6niyi-15" style="edgeStyle=orthogonalEdgeStyle;rounded=0;orthogonalLoop=1;jettySize=auto;html=1;entryX=0.5;entryY=1;entryDx=0;entryDy=0;strokeColor=#23445D;" edge="1" parent="WIyWlLk6GJQsqaUBKTNV-1" source="fNXmYHoRE0zhG1Q6niyi-7" target="fNXmYHoRE0zhG1Q6niyi-12">
          <mxGeometry relative="1" as="geometry">
            <Array as="points">
              <mxPoint x="520" y="180" />
              <mxPoint x="670" y="180" />
            </Array>
          </mxGeometry>
        </mxCell>
        <mxCell id="fNXmYHoRE0zhG1Q6niyi-7" value="Перегляд та читання" style="rounded=1;whiteSpace=wrap;html=1;strokeColor=#FFFFFF;fontColor=#FFFFFF;fillColor=#182E3E;labelBackgroundColor=none;" vertex="1" parent="WIyWlLk6GJQsqaUBKTNV-1">
          <mxGeometry x="460" y="200" width="120" height="60" as="geometry" />
        </mxCell>
        <mxCell id="fNXmYHoRE0zhG1Q6niyi-25" style="edgeStyle=orthogonalEdgeStyle;rounded=0;orthogonalLoop=1;jettySize=auto;html=1;entryX=0.5;entryY=1;entryDx=0;entryDy=0;strokeColor=#23445D;" edge="1" parent="WIyWlLk6GJQsqaUBKTNV-1" source="fNXmYHoRE0zhG1Q6niyi-10" target="fNXmYHoRE0zhG1Q6niyi-3">
          <mxGeometry relative="1" as="geometry">
            <Array as="points">
              <mxPoint x="370" y="40" />
              <mxPoint x="600" y="40" />
            </Array>
          </mxGeometry>
        </mxCell>
        <mxCell id="fNXmYHoRE0zhG1Q6niyi-10" value="Головна" style="rounded=0;whiteSpace=wrap;html=1;strokeColor=#FFFFFF;fontColor=#FFFFFF;fillColor=#182E3E;" vertex="1" parent="WIyWlLk6GJQsqaUBKTNV-1">
          <mxGeometry x="310" y="80" width="120" height="60" as="geometry" />
        </mxCell>
        <mxCell id="fNXmYHoRE0zhG1Q6niyi-24" style="edgeStyle=orthogonalEdgeStyle;rounded=0;orthogonalLoop=1;jettySize=auto;html=1;entryX=0.5;entryY=1;entryDx=0;entryDy=0;strokeColor=#23445D;" edge="1" parent="WIyWlLk6GJQsqaUBKTNV-1" source="fNXmYHoRE0zhG1Q6niyi-11" target="fNXmYHoRE0zhG1Q6niyi-3">
          <mxGeometry relative="1" as="geometry">
            <Array as="points">
              <mxPoint x="520" y="40" />
              <mxPoint x="600" y="40" />
            </Array>
          </mxGeometry>
        </mxCell>
        <mxCell id="fNXmYHoRE0zhG1Q6niyi-11" value="Оголошення" style="rounded=0;whiteSpace=wrap;html=1;strokeColor=#FFFFFF;fontColor=#FFFFFF;fillColor=#182E3E;" vertex="1" parent="WIyWlLk6GJQsqaUBKTNV-1">
          <mxGeometry x="460" y="80" width="120" height="60" as="geometry" />
        </mxCell>
        <mxCell id="fNXmYHoRE0zhG1Q6niyi-23" style="edgeStyle=orthogonalEdgeStyle;rounded=0;orthogonalLoop=1;jettySize=auto;html=1;entryX=0.5;entryY=1;entryDx=0;entryDy=0;strokeColor=#23445D;" edge="1" parent="WIyWlLk6GJQsqaUBKTNV-1" source="fNXmYHoRE0zhG1Q6niyi-12" target="fNXmYHoRE0zhG1Q6niyi-3">
          <mxGeometry relative="1" as="geometry">
            <Array as="points">
              <mxPoint x="670" y="40" />
              <mxPoint x="600" y="40" />
            </Array>
          </mxGeometry>
        </mxCell>
        <mxCell id="fNXmYHoRE0zhG1Q6niyi-12" value="Резюме" style="rounded=0;whiteSpace=wrap;html=1;strokeColor=#FFFFFF;fontColor=#FFFFFF;fillColor=#182E3E;" vertex="1" parent="WIyWlLk6GJQsqaUBKTNV-1">
          <mxGeometry x="610" y="80" width="120" height="60" as="geometry" />
        </mxCell>
        <mxCell id="fNXmYHoRE0zhG1Q6niyi-21" style="edgeStyle=orthogonalEdgeStyle;rounded=0;orthogonalLoop=1;jettySize=auto;html=1;entryX=0.5;entryY=1;entryDx=0;entryDy=0;strokeColor=#23445D;" edge="1" parent="WIyWlLk6GJQsqaUBKTNV-1" source="fNXmYHoRE0zhG1Q6niyi-16" target="fNXmYHoRE0zhG1Q6niyi-19">
          <mxGeometry relative="1" as="geometry">
            <Array as="points">
              <mxPoint x="160" y="180" />
              <mxPoint x="90" y="180" />
            </Array>
          </mxGeometry>
        </mxCell>
        <mxCell id="fNXmYHoRE0zhG1Q6niyi-22" style="edgeStyle=orthogonalEdgeStyle;rounded=0;orthogonalLoop=1;jettySize=auto;html=1;entryX=0.5;entryY=1;entryDx=0;entryDy=0;strokeColor=#23445D;" edge="1" parent="WIyWlLk6GJQsqaUBKTNV-1" source="fNXmYHoRE0zhG1Q6niyi-16" target="fNXmYHoRE0zhG1Q6niyi-20">
          <mxGeometry relative="1" as="geometry">
            <Array as="points">
              <mxPoint x="160" y="180" />
              <mxPoint x="230" y="180" />
            </Array>
          </mxGeometry>
        </mxCell>
        <mxCell id="fNXmYHoRE0zhG1Q6niyi-16" value="Редагування" style="rounded=1;whiteSpace=wrap;html=1;strokeColor=#FFFFFF;fontColor=#FFFFFF;fillColor=#182E3E;labelBackgroundColor=none;" vertex="1" parent="WIyWlLk6GJQsqaUBKTNV-1">
          <mxGeometry x="100" y="210" width="120" height="60" as="geometry" />
        </mxCell>
        <mxCell id="fNXmYHoRE0zhG1Q6niyi-27" style="edgeStyle=orthogonalEdgeStyle;rounded=0;orthogonalLoop=1;jettySize=auto;html=1;entryX=0.5;entryY=1;entryDx=0;entryDy=0;strokeColor=#23445D;" edge="1" parent="WIyWlLk6GJQsqaUBKTNV-1" source="fNXmYHoRE0zhG1Q6niyi-19" target="fNXmYHoRE0zhG1Q6niyi-3">
          <mxGeometry relative="1" as="geometry">
            <Array as="points">
              <mxPoint x="90" y="40" />
              <mxPoint x="600" y="40" />
            </Array>
          </mxGeometry>
        </mxCell>
        <mxCell id="fNXmYHoRE0zhG1Q6niyi-19" value="Мої оголошення" style="rounded=0;whiteSpace=wrap;html=1;strokeColor=#FFFFFF;fontColor=#FFFFFF;fillColor=#182E3E;" vertex="1" parent="WIyWlLk6GJQsqaUBKTNV-1">
          <mxGeometry x="30" y="80" width="120" height="60" as="geometry" />
        </mxCell>
        <mxCell id="fNXmYHoRE0zhG1Q6niyi-26" style="edgeStyle=orthogonalEdgeStyle;rounded=0;orthogonalLoop=1;jettySize=auto;html=1;entryX=0.5;entryY=1;entryDx=0;entryDy=0;strokeColor=#23445D;" edge="1" parent="WIyWlLk6GJQsqaUBKTNV-1" source="fNXmYHoRE0zhG1Q6niyi-20" target="fNXmYHoRE0zhG1Q6niyi-3">
          <mxGeometry relative="1" as="geometry">
            <Array as="points">
              <mxPoint x="230" y="40" />
              <mxPoint x="600" y="40" />
            </Array>
          </mxGeometry>
        </mxCell>
        <mxCell id="fNXmYHoRE0zhG1Q6niyi-20" value="Моє резюме" style="rounded=0;whiteSpace=wrap;html=1;strokeColor=#FFFFFF;fontColor=#FFFFFF;fillColor=#182E3E;" vertex="1" parent="WIyWlLk6GJQsqaUBKTNV-1">
          <mxGeometry x="170" y="80" width="120" height="60" as="geometry" />
        </mxCell>
        <mxCell id="fNXmYHoRE0zhG1Q6niyi-29" value="Інтерфейс&lt;div&gt;Керування&lt;/div&gt;" style="rounded=0;whiteSpace=wrap;html=1;strokeColor=#FFFFFF;fontColor=#FFFFFF;fillColor=#182E3E;" vertex="1" parent="WIyWlLk6GJQsqaUBKTNV-1">
          <mxGeometry x="310" y="-40" width="120" height="60" as="geometry" />
        </mxCell>
      </root>
    </mxGraphModel>
  </diagram>
</mxfile>
